<svg width="48" height="44" viewBox="0 0 48 44" fill="none" xmlns="http://www.w3.org/2000/svg">
<g filter="url(#filter0_d_40_218)">
<path d="M26.4166 29.7083C31.916 29.7083 34.6664 29.7083 36.3741 27.9992C38.0833 26.2915 38.0833 23.541 38.0833 18.0417C38.0833 12.5423 38.0833 9.79187 36.3741 8.08417C34.6664 6.375 31.916 6.375 26.4166 6.375H20.5833C15.0839 6.375 12.3335 6.375 10.6258 8.08417C8.91663 9.79187 8.91663 12.5423 8.91663 18.0417C8.91663 23.541 8.91663 26.2915 10.6258 27.9992C11.5781 28.9529 12.8541 29.3744 14.75 29.5596" stroke="#E6EFF6" stroke-width="2" stroke-linecap="round" stroke-linejoin="round"/>
<path d="M23.5 18.0416V18.0562M17.6667 18.0416V18.0562M29.3333 18.0416V18.0562M26.4167 29.7083C24.6142 29.7083 22.6279 30.4375 20.8152 31.3781C17.9014 32.8904 16.4446 33.6473 15.7271 33.1645C15.0096 32.6833 15.1452 31.1885 15.4179 28.2004L15.4792 27.5208" stroke="#E6EFF6" stroke-width="2" stroke-linecap="round"/>
</g>
<defs>
<filter id="filter0_d_40_218" x="-4" y="-3" width="55" height="55" filterUnits="userSpaceOnUse" color-interpolation-filters="sRGB">
<feFlood flood-opacity="0" result="BackgroundImageFix"/>
<feColorMatrix in="SourceAlpha" type="matrix" values="0 0 0 0 0 0 0 0 0 0 0 0 0 0 0 0 0 0 127 0" result="hardAlpha"/>
<feOffset dy="5"/>
<feGaussianBlur stdDeviation="5"/>
<feComposite in2="hardAlpha" operator="out"/>
<feColorMatrix type="matrix" values="0 0 0 0 0 0 0 0 0 0 0 0 0 0 0 0 0 0 0.25 0"/>
<feBlend mode="normal" in2="BackgroundImageFix" result="effect1_dropShadow_40_218"/>
<feBlend mode="normal" in="SourceGraphic" in2="effect1_dropShadow_40_218" result="shape"/>
</filter>
</defs>
</svg>
