<svg width="33" height="30" viewBox="0 0 33 30" fill="none" xmlns="http://www.w3.org/2000/svg">
<path d="M19.4166 24.7083C24.916 24.7083 27.6664 24.7083 29.3741 22.9992C31.0833 21.2915 31.0833 18.541 31.0833 13.0417C31.0833 7.54229 31.0833 4.79187 29.3741 3.08417C27.6664 1.375 24.916 1.375 19.4166 1.375H13.5833C8.08392 1.375 5.3335 1.375 3.62579 3.08417C1.91663 4.79187 1.91663 7.54229 1.91663 13.0417C1.91663 18.541 1.91663 21.2915 3.62579 22.9992C4.57808 23.9529 5.85413 24.3744 7.74996 24.5596" stroke="#2D3134" stroke-width="2" stroke-linecap="round" stroke-linejoin="round"/>
<path d="M16.5 13.0416V13.0562M10.6667 13.0416V13.0562M22.3333 13.0416V13.0562M19.4167 24.7083C17.6142 24.7083 15.6279 25.4375 13.8152 26.3781C10.9014 27.8904 9.44457 28.6473 8.72707 28.1645C8.00957 27.6833 8.14519 26.1885 8.4179 23.2004L8.47915 22.5208" stroke="#2D3134" stroke-width="2" stroke-linecap="round"/>
</svg>
