<?xml version="1.0" ?><svg style="enable-background:new 0 0 24 24;" version="1.1" viewBox="0 0 24 24" xml:space="preserve" xmlns="http://www.w3.org/2000/svg" xmlns:xlink="http://www.w3.org/1999/xlink"><style type="text/css">
	.st0{opacity:0.2;fill:none;stroke:#000000;stroke-width:5.000000e-02;stroke-miterlimit:10;}
</style><g id="grid_system"/><g id="_icons"><g><path d="M8.7,9.7L11,7.4V15c0,0.6,0.4,1,1,1s1-0.4,1-1V7.4l2.3,2.3C15.5,9.9,15.7,10,16,10s0.5-0.1,0.7-0.3c0.4-0.4,0.4-1,0-1.4    l-4-4c-0.1-0.1-0.2-0.2-0.3-0.2c-0.2-0.1-0.5-0.1-0.8,0c-0.1,0.1-0.2,0.1-0.3,0.2l-4,4c-0.4,0.4-0.4,1,0,1.4S8.3,10.1,8.7,9.7z"/><path d="M19,13c-0.6,0-1,0.4-1,1v2c0,1.1-0.9,2-2,2H8c-1.1,0-2-0.9-2-2v-2c0-0.6-0.4-1-1-1s-1,0.4-1,1v2c0,2.2,1.8,4,4,4h8    c2.2,0,4-1.8,4-4v-2C20,13.4,19.6,13,19,13z"/></g></g></svg>